<svg xmlns="http://www.w3.org/2000/svg" width="28" height="28" viewBox="0 0 28 28">
  <g id="Group_14171" data-name="Group 14171" transform="translate(-93 -407)">
    <rect id="Rectangle_37" data-name="Rectangle 37" width="28" height="28" transform="translate(93 407)" fill="#fff" opacity="0"/>
    <g id="vuesax_bold_receipt" data-name="vuesax/bold/receipt" transform="translate(-205 -163)">
      <g id="receipt">
        <path id="Vector" d="M12.28,0H4.72C.94,0,0,1.01,0,5.04V16.3c0,2.66,1.46,3.29,3.23,1.39l.01-.01a1.759,1.759,0,0,1,2.78.15l1.01,1.35a1.738,1.738,0,0,0,2.93,0l1.01-1.35a1.758,1.758,0,0,1,2.79-.15c1.78,1.9,3.23,1.27,3.23-1.39V5.04C17,1.01,16.06,0,12.28,0ZM11.5,9.75h-6a.75.75,0,0,1,0-1.5h6a.75.75,0,0,1,0,1.5Zm1-4h-8a.75.75,0,0,1,0-1.5h8a.75.75,0,0,1,0,1.5Z" transform="translate(303.5 574)" fill="#8a8c99"/>
        <path id="Vector-2" data-name="Vector" d="M0,0H24V24H0Z" transform="translate(300 572)" fill="none" opacity="0"/>
      </g>
    </g>
  </g>
</svg>
