<svg xmlns="http://www.w3.org/2000/svg" width="28" height="28" viewBox="0 0 28 28">
  <g id="Group_31" data-name="Group 31" transform="translate(-93 -505)">
    <rect id="Rectangle_38" data-name="Rectangle 38" width="28" height="28" transform="translate(93 505)" fill="#8a8c99" opacity="0"/>
    <g id="vuesax_bold_calendar" data-name="vuesax/bold/calendar" transform="translate(-397 319)">
      <g id="calendar" transform="translate(1.799 1.799)">
        <path id="Vector" d="M0,0H20.4V20.4H0Z" transform="translate(492 188)" fill="none" opacity="0"/>
        <g id="Group_14188" data-name="Group 14188" transform="translate(493.628 188)">
          <path id="Vector-2" data-name="Vector" d="M13.481,2.271V.737a.737.737,0,0,0-1.475,0V2.212H5.615V.737a.737.737,0,1,0-1.475,0V2.271A4.176,4.176,0,0,0,0,6.45a.494.494,0,0,0,.492.521H17.128a.488.488,0,0,0,.492-.521A4.176,4.176,0,0,0,13.481,2.271Z" transform="translate(0.038)" fill="#8a8c99"/>
          <path id="Vector-3" data-name="Vector" d="M16.714,0H.983A.986.986,0,0,0,0,.983V7.04c0,2.95,1.475,4.916,4.916,4.916h7.865c3.441,0,4.916-1.966,4.916-4.916V.983A.986.986,0,0,0,16.714,0ZM6.106,8.229a1.549,1.549,0,0,1-.147.118.744.744,0,0,1-.177.088.625.625,0,0,1-.177.059,1.332,1.332,0,0,1-.2.02.979.979,0,0,1-.374-.079,1.015,1.015,0,0,1-.324-.206,1,1,0,0,1,0-1.4,1.015,1.015,0,0,1,.324-.206.94.94,0,0,1,.57-.059.625.625,0,0,1,.177.059.744.744,0,0,1,.177.088l.147.118a1,1,0,0,1,0,1.4Zm0-3.441a1,1,0,0,1-1.4,0,1,1,0,0,1,0-1.4.982.982,0,0,1,1.072-.206.918.918,0,0,1,.324.206,1,1,0,0,1,0,1.4ZM9.547,8.229a.987.987,0,0,1-1.4-1.4.987.987,0,0,1,1.4,1.4Zm0-3.441L9.4,4.906a.744.744,0,0,1-.177.088.625.625,0,0,1-.177.059,1.333,1.333,0,0,1-.2.02.974.974,0,0,1-.983-.983,1.034,1.034,0,0,1,.285-.7.918.918,0,0,1,.324-.206.982.982,0,0,1,1.072.206,1,1,0,0,1,0,1.4Zm3.441,3.441a.987.987,0,0,1-1.4-1.4.987.987,0,0,1,1.4,1.4Zm0-3.441-.147.118a.744.744,0,0,1-.177.088.625.625,0,0,1-.177.059,1.478,1.478,0,0,1-.2.02.974.974,0,0,1-.983-.983,1.034,1.034,0,0,1,.285-.7,1.015,1.015,0,0,1,.324-.206.94.94,0,0,1,.57-.059.625.625,0,0,1,.177.059.744.744,0,0,1,.177.088l.147.118a1,1,0,0,1,0,1.4Z" transform="translate(0 8.446)" fill="#8a8c99"/>
        </g>
      </g>
    </g>
  </g>
</svg>
