<svg xmlns="http://www.w3.org/2000/svg" width="28" height="28" viewBox="0 0 28 28">
  <g id="Group_28" data-name="Group 28" transform="translate(-95 -183)">
    <g id="Rectangle_35" data-name="Rectangle 35" transform="translate(95 183)" fill="#ddb669" stroke="#707070" stroke-width="1" opacity="0">
      <rect width="28" height="28" stroke="none"/>
      <rect x="0.5" y="0.5" width="27" height="27" fill="none"/>
    </g>
    <g id="Group_23" data-name="Group 23" transform="translate(-2428.063 113.938)">
      <path id="Subtraction_4" data-name="Subtraction 4" d="M9,18a8.958,8.958,0,0,1-5.032-1.537A9.026,9.026,0,0,1,.707,12.5a8.988,8.988,0,0,1,.83-8.535A9.026,9.026,0,0,1,5.5.707,8.944,8.944,0,0,1,9,0V9h9a8.958,8.958,0,0,1-1.537,5.032,9.026,9.026,0,0,1-3.96,3.261A8.944,8.944,0,0,1,9,18Z" transform="translate(2527.063 75.062)" fill="#ddb669"/>
      <path id="Intersection_2" data-name="Intersection 2" d="M0,9V0A9,9,0,0,1,9,9Z" transform="translate(2538.063 73.062)" fill="#ddb669"/>
    </g>
  </g>
</svg>
