<svg xmlns="http://www.w3.org/2000/svg" width="1080" height="803.372" viewBox="0 0 1080 803.372">
  <g id="logo" opacity="0.4" style="mix-blend-mode: overlay;isolation: isolate">
    <path id="Vector" d="M134.6,443.974l.2.033a464.311,464.311,0,0,0,72.116,12.052c38.273,3.518,76.285,2.638,114.167-1.368,16.579-1.759,33.159-4.1,49.738-6.938,52.963-9.055,102.18-21.433,146.9-36.872.293-.1,28.338-9.642,62.083-24.951a548.069,548.069,0,0,0,60.878-32.149c8.664-5.407,17.231-11.172,24.56-18.371,9.251-9.088,14.853-20.684,19.283-32.736.912-2.443,1.726-4.918,2.476-7.427,8.729-37.231-4.756-56.155-4.756-56.155-10.879-24.3-82.083-23.452-82.083-23.452-80.813-1.661-72.865-46.9-72.865-46.9,36.025-67.849,100.1-103.027,100.1-103.027,9.413-5.733,23.127-13.713,34.788-10.521,5.961,1.629,10.782,6.384,14.723,12.215L694,41.017a22.56,22.56,0,0,0-1.107-26.351c-.033-.033-.065-.1-.13-.13-6.189-7.622-14.984-13.355-24.4-14.365A23.66,23.66,0,0,0,657.29,1.377c-27.915,8.371-80.976,59.738-80.976,59.738C473.58,170.559,513.221,235.9,513.221,235.9c22.345,42.442,97.164,34.625,97.164,34.625,41.563,1.5,55.015,10.358,59.347,16.156.033.033.033.065.065.1a20.207,20.207,0,0,1,1.922,4.169v.1c.033.293.065.489.065.619v.13c-.293.261-.619.521-.912.814l-.326.228c-20.684,12.866-64.624,37.719-128.3,61.009C478.271,377.2,411.5,392.77,343.974,401.336c-3.29.423-6.612.814-9.9,1.173-20.1,2.247-40.1,3.616-60.129,3.941-18.436.326-36.9-.228-55.536-1.726-50.227-3.974-127.327-15.7-209.54-48.989-4.56-1.824-7.1-2.019-8.306-.554-1.335,1.629.1,4.072.391,4.528l.163.261L134.5,443.941Z" transform="translate(0)" fill="#173039"/>
    <path id="Vector-2" data-name="Vector" d="M642.832,99.337s-6.58,2.378-17.883,24.658c0,0-16.351,35.537-40.26,49.8,0,0-38.729,21.987-65.764-4.853,0,0-12.931-12.736-6.384-36.188,0,0,3.778-11.922-7.752-6.352,0,0-15.57,8.176-31.693,16.221,0,0-21.107,10.488-54.722,22.117-5.472-14.332-13.29-30.195-24.006-41.628-59.315-63.452-98.7,23.648-98.7,23.648-17,46.318,6.449,68.012,15.961,74.559,0,0,28.664,15.342,82.148,1.108,3.583-.945,7.492-2.248,11.531-3.616a109.434,109.434,0,0,1,5.9,21.4c-1.694,1.922-3.355,3.876-5.016,5.765-59.771,67.165-105.829,90.78-105.829,90.78-106.578,67.621-156.544,18.273-156.544,18.273-29.446-25.472-26.644-82.409-21.172-118.825a190.242,190.242,0,0,0,18.013-14.886S226.423,139.76,253.686,114.06c0,0,67.132-63.484,120.128-66.09,0,0,58.24-7.883,86.024,40.39,0,0,13.648-37.752,6.808-48.273C422.8-27.37,335.508,10.707,335.508,10.707,286.715,27.482,210.657,104.06,210.657,104.06c-24.658,26.221-86.383,79.9-86.383,79.9S76.393,224.677,46.491,214.71c0,0-56.123-5.244-29.381-91.269,0,0,7.687-23.843,16.254-37.231,5.635-8.827,3.322-9.511.1-8.371a16.039,16.039,0,0,0-8.208,6.873C-3.7,133.246.173,180.313.173,180.313c5.179,58.272,49.185,76.35,49.185,76.35,19.544,8.534,43.289-1.238,61.66-12.671-24.82,89.705,7.72,139.02,7.72,139.02,39.478,61.074,115.112,35.081,115.112,35.081,79.38-25.342,144.46-96.057,144.46-96.057,15.407-13.518,25.993-26.416,33.289-37.752,16.351-25.472,16.058-43.257,16.058-43.257a146.639,146.639,0,0,0,1.792-30.781c37.263-14.69,61.79-28.4,61.79-28.4s2.378-1.6,1.6,3.778c0,0-1.6,45.146,41.172,51.53,0,0,36.579,8.143,62.637-28.045,0,0,12.8-19.641,18.534-30.618,13.453,36.253,47.686,39.771,47.686,39.771,58.891,9.935,64.852-60.064,64.852-60.064,6.352-49.706-19.9-77.165-19.9-77.165l-11.922,54.494s15.114,18.11,16.905,22.671c0,0-12.736,10.13-48.338,1.987A52.8,52.8,0,0,1,642.7,146.34s-9.674-9.414-.1-28.892C642.636,117.448,652.18,93.377,642.832,99.337ZM321.6,156.991s25.407-22.508,57.979,17.752c-3.876.619-7.752,1.14-11.563,1.433C368.048,176.176,304.63,182.007,321.6,156.991Z" transform="translate(351.293 379.783)" fill="#173039"/>
    <path id="Vector-3" data-name="Vector" d="M32.377,0,0,32.377,28.762,61.106,0,89.868,28.762,118.63,0,147.391l32.377,32.377,32.377-32.377L35.993,118.63,64.754,89.868,35.993,61.106,64.754,32.377Z" transform="translate(896.048 289.873)" fill="#173039"/>
    <path id="Vector-4" data-name="Vector" d="M135.844,150.315C119.1,165.1,42.426,219.369,5.716,245.134c-11.987,8.4-1.4,4.137-1.4,4.137l62.7-33.094C154.476,173.409,206.788,97.742,206.788,97.742a123.589,123.589,0,0,0,8.469-11.759c14.788,11.27,18.078,19.446,18.078,19.446C244.8,84.42,240.5,80.186,240.5,80.186c-1.075-2.443-8.078-8.6-14.821-14.137,8.241-19.413,9.8-34.918,9.8-34.918-2.866-43.452-30.1-28.729-30.1-28.729-27.947,12.606-30.814,40.651-30.814,40.651,2.866,17.524,27.947,34.332,27.947,34.332,1.27.782,2.475,1.531,3.648,2.28C182.13,112.042,135.844,150.315,135.844,150.315Zm76.709-94.624c-28.664-21.726-22.931-26.644-22.931-26.644,33.68-26.644,28.664,30.13,28.664,30.13-.1.228-.2.489-.293.717C214.8,57.385,212.553,55.691,212.553,55.691Z" transform="translate(717.371 106.66)" fill="#173039"/>
    <path id="Vector-5" data-name="Vector" d="M37.447,1.921S9.272,53.191,2.79,69.8c0,0-15.179,45.5,25.276,49.12,0,0,46.937-.717,46.937-50.553,0,0,2.052-22.736-36.872-43.289l.033-.033C38.164,25.015,51.877-8.209,37.447,1.921ZM65.59,76.285S44.646,104.46,17.936,88.565c0,0-10.1-5.765,7.231-39.739l3.257-5.993-1.107,3.094C27.317,45.96,60.541,65.471,65.59,76.285Z" transform="translate(548.119 572.669)" fill="#173039"/>
    <path id="Vector-6" data-name="Vector" d="M37.447,1.91S9.272,53.18,2.79,69.792c0,0-15.179,45.5,25.276,49.12,0,0,46.937-.717,46.937-50.553,0,0,2.052-22.736-36.872-43.289l.033-.033S51.877-8.187,37.447,1.91Zm28.175,74.4s-20.944,28.175-47.654,12.28c0,0-10.1-5.765,7.231-39.739l3.257-5.993-1.107,3.094C27.317,45.981,60.541,65.492,65.622,76.306Z" transform="translate(276.332 229.137)" fill="#173039"/>
    <path id="Vector-7" data-name="Vector" d="M79.933,213.351C134.232,65.927,1.563,0,1.563,0L0,38.794c110.161,74.494,73.712,168.368,73.712,168.368C69.836,224.23,79.933,213.351,79.933,213.351Z" transform="translate(360 120.756)" fill="#173039"/>
    <path id="Vector-8" data-name="Vector" d="M138.4,6.316c-33.973-29.055-49.12,51.563-49.12,51.563C86.41,80,81.1,118.854,81.1,118.854c-22.931-101.92-66.9-102.8-66.9-102.8C-3.621,18.824.386,55.044.386,55.044,3.154,58.432,32.014,79.6,32.014,79.6c4.3,2.443,4.3-7.687,4.3-7.687,22.312,23.029,39.055,91.562,39.055,91.562,13.518-10.228,19.641-74.917,19.641-74.917,8.6-91.269,49.12-34.788,49.12-34.788,5.733-6.124,6.124-33.973,6.124-33.973C148.233,14.915,138.4,6.316,138.4,6.316Z" transform="translate(669.608 85.027)" fill="#173039"/>
  </g>
</svg>
