<svg xmlns="http://www.w3.org/2000/svg" width="28" height="28" viewBox="0 0 28 28">
  <g id="Group_14163" data-name="Group 14163" transform="translate(-93 -407)">
    <rect id="Rectangle_37" data-name="Rectangle 37" width="28" height="28" transform="translate(93 407)" fill="#fff" opacity="0"/>
    <g id="vuesax_bold_user" data-name="vuesax/bold/user" transform="translate(-13 221)">
      <g id="user">
        <path id="Vector" d="M0,0H24V24H0Z" transform="translate(108 188)" fill="none" opacity="0"/>
        <g id="Group_14167" data-name="Group 14167">
          <path id="Vector-2" data-name="Vector" d="M10,5A5,5,0,1,1,5,0,5,5,0,0,1,10,5Z" transform="translate(115 190)" fill="#8a8c99"/>
          <path id="Vector-3" data-name="Vector" d="M9.09,0C4.08,0,0,3.36,0,7.5A.5.5,0,0,0,.5,8H17.68a.5.5,0,0,0,.5-.5C18.18,3.36,14.1,0,9.09,0Z" transform="translate(110.91 202.5)" fill="#8a8c99"/>
        </g>
      </g>
    </g>
    <g id="vuesax_bold_briefcase" data-name="vuesax/bold/briefcase" transform="translate(-1 233)">
      <g id="Union_2" data-name="Union 2" transform="translate(7892.001 478.885)" fill="#8a8c99">
        <path d="M -7776.09619140625 -279.1691589355469 L -7779.90673828125 -279.1691589355469 C -7781.07275390625 -279.1691589355469 -7781.91064453125 -279.4324035644531 -7782.4677734375 -279.9739379882812 C -7783.03271484375 -280.5230712890625 -7783.1669921875 -281.234375 -7783.21875 -281.7216491699219 L -7783.21923828125 -281.7262878417969 L -7783.2197265625 -281.7308959960938 L -7783.4287109375 -284.0416259765625 L -7783.4873046875 -284.6922607421875 L -7783.49072265625 -284.6944580078125 L -7783.51806640625 -284.9775085449219 L -7783.56689453125 -285.4823608398438 L -7783.5693359375 -285.4971618652344 L -7783.57275390625 -285.5174560546875 L -7783.57470703125 -285.5379333496094 C -7783.63525390625 -286.1608581542969 -7783.64013671875 -287.072265625 -7782.99169921875 -287.7924194335938 C -7782.51513671875 -288.3193664550781 -7781.80908203125 -288.6109313964844 -7780.84130859375 -288.6786499023438 C -7780.763671875 -289.5211486816406 -7780.37060546875 -290.6004638671875 -7778.38134765625 -290.6004638671875 L -7777.62158203125 -290.6004638671875 C -7776.56494140625 -290.6004638671875 -7775.861328125 -290.3058166503906 -7775.47119140625 -289.6996765136719 C -7775.2626953125 -289.3758850097656 -7775.18603515625 -289.0211791992188 -7775.1572265625 -288.6841430664062 C -7774.1904296875 -288.6156616210938 -7773.48583984375 -288.3233642578125 -7773.01123046875 -287.7962341308594 C -7772.3828125 -287.1028442382812 -7772.37158203125 -286.2298278808594 -7772.41748046875 -285.6336059570312 L -7772.41943359375 -285.6072387695312 L -7772.4228515625 -285.5855407714844 L -7772.423828125 -285.5760192871094 C -7772.42529296875 -285.5572204589844 -7772.42724609375 -285.538818359375 -7772.4296875 -285.5196838378906 L -7772.4541015625 -285.2909240722656 L -7772.4736328125 -285.1110229492188 L -7772.501953125 -284.8524475097656 L -7772.564453125 -284.1589050292969 L -7772.783203125 -281.7368469238281 L -7772.78369140625 -281.7323608398438 L -7772.7841796875 -281.7278747558594 C -7772.8359375 -281.2388916015625 -7772.9697265625 -280.5251770019531 -7773.53466796875 -279.9750671386719 C -7774.091796875 -279.4327697753906 -7774.9296875 -279.1691589355469 -7776.09619140625 -279.1691589355469 Z" stroke="none"/>
        <path d="M -7776.09619140625 -279.7691650390625 C -7773.896484375 -279.7691650390625 -7773.486328125 -280.7907104492188 -7773.380859375 -281.7908020019531 L -7773.162109375 -284.212890625 C -7773.162109375 -284.212890625 -7775.17236328125 -283.2108459472656 -7776.10205078125 -283.0096435546875 C -7776.37744140625 -282.2791137695312 -7777.06689453125 -281.8747863769531 -7778.06689453125 -281.8747863769531 C -7779.07666015625 -281.8747863769531 -7779.75634765625 -282.2654418945312 -7780.03173828125 -282.9959716796875 C -7780.9111328125 -283.1854553222656 -7782.8310546875 -284.0956726074219 -7782.8310546875 -284.0956726074219 L -7782.6220703125 -281.7849426269531 C -7782.5166015625 -280.7907104492188 -7782.1064453125 -279.7691650390625 -7779.90673828125 -279.7691650390625 L -7776.09619140625 -279.7691650390625 M -7778.06689453125 -282.6092224121094 C -7776.97119140625 -282.6092224121094 -7776.75634765625 -283.1542053222656 -7776.72119140625 -283.6405639648438 C -7775.70166015625 -283.8046569824219 -7774.71728515625 -284.16015625 -7773.826171875 -284.6797180175781 C -7773.796875 -284.6953430175781 -7773.775390625 -284.7090148925781 -7773.751953125 -284.7246398925781 C -7773.521484375 -284.8554992675781 -7773.28125 -285.0195922851562 -7773.0703125 -285.1758422851562 L -7773.025390625 -285.5899353027344 C -7773.021484375 -285.6192626953125 -7773.021484375 -285.6446533203125 -7773.015625 -285.6798095703125 C -7772.9765625 -286.1856994628906 -7772.986328125 -286.8752136230469 -7773.45703125 -287.394775390625 C -7773.880859375 -287.8655395507812 -7774.59228515625 -288.0999145507812 -7775.62158203125 -288.0999145507812 L -7775.74072265625 -288.0999145507812 L -7775.74072265625 -288.1194458007812 C -7775.74072265625 -288.9593811035156 -7775.74072265625 -290.0004577636719 -7777.62158203125 -290.0004577636719 L -7778.38134765625 -290.0004577636719 C -7780.26025390625 -290.0004577636719 -7780.26025390625 -288.9554748535156 -7780.26025390625 -288.1194458007812 L -7780.26025390625 -288.0940551757812 L -7780.3818359375 -288.0940551757812 C -7781.4169921875 -288.0940551757812 -7782.1220703125 -287.8596801757812 -7782.5458984375 -287.390869140625 C -7783.0419921875 -286.8400573730469 -7783.0263671875 -286.0997619628906 -7782.9775390625 -285.5957946777344 L -7782.9716796875 -285.5606384277344 L -7782.9208984375 -285.0352172851562 C -7782.9208984375 -285.0352172851562 -7782.5615234375 -284.7949523925781 -7782.3818359375 -284.6953430175781 C -7782.3115234375 -284.6504211425781 -7782.2373046875 -284.6094055175781 -7782.1611328125 -284.5703430175781 C -7781.3076171875 -284.0995788574219 -7780.3662109375 -283.7851257324219 -7779.41064453125 -283.6307983398438 C -7779.36572265625 -283.1600646972656 -7779.16064453125 -282.6092224121094 -7778.06689453125 -282.6092224121094 M -7778.68603515625 -284.5957336425781 L -7777.45556640625 -284.5957336425781 L -7777.45556640625 -283.9706726074219 C -7777.45556640625 -283.4393920898438 -7777.45556640625 -283.3592834472656 -7778.07080078125 -283.3592834472656 C -7778.68603515625 -283.3592834472656 -7778.68603515625 -283.4550170898438 -7778.68603515625 -283.9648132324219 L -7778.68603515625 -284.5957336425781 M -7778.38134765625 -289.2855529785156 L -7777.62158203125 -289.2855529785156 C -7776.45751953125 -289.2855529785156 -7776.45751953125 -288.9652404785156 -7776.45751953125 -288.1194458007812 L -7776.45751953125 -288.0940551757812 L -7779.54541015625 -288.0940551757812 L -7779.54541015625 -288.1194458007812 C -7779.54541015625 -288.9691467285156 -7779.54541015625 -289.2855529785156 -7778.38134765625 -289.2855529785156 M -7776.09619140625 -278.5691528320312 L -7779.90673828125 -278.5691528320312 C -7781.23681640625 -278.5691528320312 -7782.21142578125 -278.8879089355469 -7782.88623046875 -279.5436401367188 C -7783.5908203125 -280.2283020019531 -7783.75390625 -281.0784606933594 -7783.8154296875 -281.6583557128906 L -7783.8173828125 -281.6768493652344 L -7784.060546875 -284.3536987304688 L -7784.171875 -285.4800720214844 C -7784.181640625 -285.5813598632812 -7784.1962890625 -285.7319946289062 -7784.20068359375 -285.9163818359375 L -7784.21533203125 -286.0800170898438 L -7784.20166015625 -286.0734252929688 C -7784.1943359375 -286.6607055664062 -7784.064453125 -287.4977416992188 -7783.4375 -288.1939392089844 C -7782.9384765625 -288.7461242675781 -7782.25634765625 -289.0863342285156 -7781.36669921875 -289.2237854003906 C -7781.3056640625 -289.4881286621094 -7781.20361328125 -289.7593078613281 -7781.03515625 -290.0218811035156 C -7780.53271484375 -290.8039245605469 -7779.64013671875 -291.2004699707031 -7778.38134765625 -291.2004699707031 L -7777.62158203125 -291.2004699707031 C -7776.3623046875 -291.2004699707031 -7775.46923828125 -290.8047790527344 -7774.966796875 -290.0244140625 C -7774.798828125 -289.7630920410156 -7774.69677734375 -289.4929504394531 -7774.63525390625 -289.2294006347656 C -7773.7451171875 -289.091552734375 -7773.06298828125 -288.7504577636719 -7772.5654296875 -288.1976928710938 C -7771.98291015625 -287.5547180175781 -7771.83154296875 -286.7891540527344 -7771.8046875 -286.2298278808594 L -7771.77392578125 -286.2451171875 L -7771.80029296875 -285.9515075683594 C -7771.802734375 -285.7993774414062 -7771.8125 -285.6744079589844 -7771.8193359375 -285.58740234375 L -7771.8271484375 -285.510498046875 C -7771.8291015625 -285.4908447265625 -7771.8310546875 -285.4713439941406 -7771.83349609375 -285.4513549804688 L -7771.90478515625 -284.7918395996094 L -7772.1875 -281.6649475097656 C -7772.2490234375 -281.0833740234375 -7772.41162109375 -280.2308959960938 -7773.1162109375 -279.545166015625 C -7773.79052734375 -278.888427734375 -7774.76513671875 -278.5691528320312 -7776.09619140625 -278.5691528320312 Z" stroke="none" fill="#fff"/>
      </g>
      <g id="Vector-4" data-name="Vector" transform="translate(120 200) rotate(180)" fill="none" opacity="0">
        <path d="M0,0H12V12H0Z" stroke="none"/>
        <path d="M 0 0 L 0 12 L 12 12 L 12 0 L 0 0 M -1.199999809265137 -1.199999809265137 L 13.19999980926514 -1.199999809265137 L 13.19999980926514 13.19999980926514 L -1.199999809265137 13.19999980926514 L -1.199999809265137 -1.199999809265137 Z" stroke="none" fill="#fff"/>
      </g>
    </g>
  </g>
</svg>
